<svg version="1.1" id="Layer_1" xmlns="http://www.w3.org/2000/svg" xmlns:xlink="http://www.w3.org/1999/xlink" x="0px" y="0px"
	 width="100%" viewBox="0 0 512 512" enable-background="new 0 0 512 512" xml:space="preserve">
<path fill="#E13933" opacity="1.000000" stroke="none" 
	d="
M189.000000,513.000000 
	C126.347282,513.000000 63.694569,513.000000 1.020927,513.000000 
	C1.020927,342.385284 1.020927,171.770554 1.020927,1.077918 
	C171.576691,1.077918 342.153412,1.077918 512.865112,1.077918 
	C512.865112,171.666595 512.865112,342.333282 512.865112,513.000000 
	C440.899963,513.000000 368.916016,513.000000 296.371674,512.636230 
	C258.245819,398.395294 220.680344,284.518158 182.990921,170.265274 
	C150.896683,180.849304 119.374779,191.244614 87.448540,201.773254 
	C88.280205,204.417526 88.940437,206.608047 89.656433,208.780182 
	C122.578560,308.655396 155.509109,408.527863 188.396469,508.414520 
	C188.870178,509.853271 188.810654,511.467621 189.000000,513.000000 
M409.150665,341.657288 
	C430.511658,308.967865 443.914246,273.484711 445.997131,234.247345 
	C448.577881,185.630203 433.796417,142.148026 404.981110,103.485832 
	C374.788513,62.975723 334.462738,37.943756 284.539307,29.622431 
	C254.313751,24.584377 224.377274,28.676130 194.989731,36.543232 
	C183.490417,39.621616 172.235229,43.611950 160.535583,47.291763 
	C171.887405,81.696198 182.906815,115.093170 194.073318,148.935944 
	C196.473434,146.515686 198.264389,144.547318 200.222031,142.761688 
	C214.050903,130.147873 230.004227,124.296715 248.510437,129.374863 
	C268.538727,134.870667 285.028259,145.993332 295.348907,164.342697 
	C313.923340,197.366577 324.782745,232.475845 320.894379,270.931091 
	C318.886841,290.785645 313.658752,309.663208 300.631836,325.382416 
	C289.048737,339.359375 274.979950,346.813293 255.832962,339.453613 
	C264.707733,366.360016 273.391327,392.686737 282.289490,419.664093 
	C335.453003,411.207062 377.875000,386.235107 409.150665,341.657288 
M104.318550,178.858597 
	C128.735641,170.776733 153.152725,162.694870 177.815536,154.531693 
	C165.869095,118.311119 154.110458,82.659981 142.228455,46.634747 
	C110.056000,57.250309 78.412476,67.691353 46.576591,78.195862 
	C58.587013,114.592598 70.357887,150.263412 82.178299,186.084335 
	C89.650032,183.631897 96.600815,181.350449 104.318550,178.858597 
z"/>
<path fill="#FFFDFD" opacity="1.000000" stroke="none" 
	d="
M189.468658,513.000000 
	C188.810654,511.467621 188.870178,509.853271 188.396469,508.414520 
	C155.509109,408.527863 122.578560,308.655396 89.656433,208.780182 
	C88.940437,206.608047 88.280205,204.417526 87.448540,201.773254 
	C119.374779,191.244614 150.896683,180.849304 182.990921,170.265274 
	C220.680344,284.518158 258.245819,398.395294 295.905640,512.636230 
	C283.312439,513.000000 270.624878,513.000000 257.615479,512.659241 
	C261.632965,510.860229 265.972290,509.402008 270.656830,507.827789 
	C262.148621,492.088959 253.968842,476.957672 245.789047,461.826385 
	C245.493820,461.942108 245.198578,462.057831 244.903351,462.173553 
	C247.268906,479.115692 249.634445,496.057861 252.000000,513.000000 
	C245.645599,513.000000 239.291214,513.000000 232.547012,512.637024 
	C225.282547,499.399475 218.407883,486.524872 211.533218,473.650299 
	C211.134949,473.855896 210.736679,474.061493 210.338409,474.267120 
	C212.225616,487.178070 214.112808,500.089020 216.000000,513.000000 
	C207.312439,513.000000 198.624863,513.000000 189.468658,513.000000 
M241.981110,452.231018 
	C241.981110,452.231018 242.003723,452.083710 242.003723,452.083710 
	C242.003723,452.083710 241.658691,452.431580 242.110428,451.583801 
	C239.817139,434.470825 237.523849,417.357849 235.170044,399.793182 
	C228.663635,401.954102 222.890045,403.871643 216.587784,405.964783 
	C225.128128,421.713318 233.429993,437.022064 241.981110,452.231018 
M178.925644,283.701508 
	C179.596542,288.203583 180.267456,292.705688 180.991425,297.563812 
	C187.507339,295.389404 193.240433,293.476227 199.336487,291.441925 
	C190.830444,275.740509 182.685013,260.704773 174.539597,245.669022 
	C174.175385,245.850464 173.811172,246.031891 173.446960,246.213333 
	C175.242020,258.416016 177.037079,270.618683 178.925644,283.701508 
M149.133911,311.552155 
	C149.180771,312.922302 148.772491,314.530884 149.345856,315.625183 
	C154.361664,325.198334 159.550552,334.680817 164.692917,344.187592 
	C167.188065,348.800385 169.693451,353.407654 172.194199,358.017395 
	C172.518890,357.901031 172.843582,357.784637 173.168259,357.668274 
	C170.738876,340.651489 168.309494,323.634735 165.803177,306.079102 
	C160.181564,307.898254 155.012680,309.570892 149.133911,311.552155 
M196.217499,327.294586 
	C199.519073,333.337524 202.820648,339.380463 206.122223,345.423431 
	C206.571259,345.307037 207.020294,345.190674 207.469330,345.074280 
	C205.109619,328.380981 202.749924,311.687683 200.333542,294.593414 
	C193.780289,296.792328 188.045197,298.716736 181.945480,300.763458 
	C186.785248,309.742126 191.337265,318.186981 196.217499,327.294586 
M214.665848,360.818878 
	C212.881699,357.765350 211.097534,354.711792 209.313385,351.658264 
	C208.970932,351.894165 208.628479,352.130066 208.286026,352.365936 
	C210.717133,369.019073 213.148239,385.672180 215.643387,402.763947 
	C222.129944,400.606598 227.885696,398.692322 233.989243,396.662384 
	C227.483673,384.605011 221.242859,373.038361 214.665848,360.818878 
M172.943436,241.230072 
	C170.543213,224.145721 168.143005,207.061371 165.656891,189.365494 
	C159.331711,191.446701 153.550232,193.349014 147.255707,195.420151 
	C149.538055,199.691956 151.589859,203.645493 153.743896,207.542526 
	C160.068420,218.984726 166.433548,230.404495 172.943436,241.230072 
M160.522888,294.973297 
	C153.839996,282.830627 147.580994,270.437561 140.585342,258.479645 
	C140.107132,258.727692 139.628922,258.975739 139.150726,259.223755 
	C141.540863,275.594910 143.931015,291.966064 146.405426,308.914368 
	C152.650116,306.852020 158.517288,304.914337 164.708084,302.869812 
	C163.207016,300.020996 162.048843,297.822937 160.522888,294.973297 
M190.706284,391.769257 
	C185.412949,382.031769 180.119629,372.294281 174.826294,362.556793 
	C174.465851,362.716583 174.105408,362.876343 173.744980,363.036133 
	C176.168793,379.925140 178.592606,396.814148 181.079880,414.145325 
	C187.478058,412.036926 193.341003,410.104889 199.467041,408.086151 
	C196.389389,402.366608 193.715210,397.396912 190.706284,391.769257 
M136.544250,238.895981 
	C134.726624,226.294098 132.908997,213.692215 131.042877,200.754166 
	C124.680641,202.868210 118.919861,204.782394 112.659393,206.862625 
	C120.970245,222.215454 129.009445,237.066467 137.048645,251.917480 
	C137.433960,251.764832 137.819275,251.612183 138.204590,251.459534 
	C137.702499,247.561127 137.200394,243.662720 136.544250,238.895981 
M206.287704,452.151489 
	C204.387680,438.730042 202.487656,425.308594 200.499969,411.267883 
	C194.084656,413.366730 188.329865,415.249481 182.057419,417.301575 
	C190.225189,432.413422 198.119385,447.019104 206.013596,461.624817 
	C206.427200,461.488312 206.840805,461.351837 207.254425,461.215332 
	C206.983017,458.483521 206.711609,455.751678 206.287704,452.151489 
z"/>
<path fill="#FF2E5B" opacity="1.000000" stroke="none" 
	d="
M252.416656,513.000000 
	C249.634445,496.057861 247.268906,479.115692 244.903351,462.173553 
	C245.198578,462.057831 245.493820,461.942108 245.789047,461.826385 
	C253.968842,476.957672 262.148621,492.088959 270.656830,507.827789 
	C265.972290,509.402008 261.632965,510.860229 257.146851,512.659241 
	C255.611115,513.000000 254.222214,513.000000 252.416656,513.000000 
z"/>
<path fill="#F79624" opacity="1.000000" stroke="none" 
	d="
M216.466858,513.000000 
	C214.112808,500.089020 212.225616,487.178070 210.338409,474.267120 
	C210.736679,474.061493 211.134949,473.855896 211.533218,473.650299 
	C218.407883,486.524872 225.282547,499.399475 232.078613,512.637024 
	C226.977905,513.000000 221.955811,513.000000 216.466858,513.000000 
z"/>
<path fill="#FFFEFD" opacity="1.000000" stroke="none" 
	d="
M408.960938,341.962036 
	C377.875000,386.235107 335.453003,411.207062 282.289490,419.664093 
	C273.391327,392.686737 264.707733,366.360016 255.832962,339.453613 
	C274.979950,346.813293 289.048737,339.359375 300.631836,325.382416 
	C313.658752,309.663208 318.886841,290.785645 320.894379,270.931091 
	C324.782745,232.475845 313.923340,197.366577 295.348907,164.342697 
	C285.028259,145.993332 268.538727,134.870667 248.510437,129.374863 
	C230.004227,124.296715 214.050903,130.147873 200.222031,142.761688 
	C198.264389,144.547318 196.473434,146.515686 194.073318,148.935944 
	C182.906815,115.093170 171.887405,81.696198 160.535583,47.291763 
	C172.235229,43.611950 183.490417,39.621616 194.989731,36.543232 
	C224.377274,28.676130 254.313751,24.584377 284.539307,29.622431 
	C334.462738,37.943756 374.788513,62.975723 404.981110,103.485832 
	C433.796417,142.148026 448.577881,185.630203 445.997131,234.247345 
	C443.914246,273.484711 430.511658,308.967865 408.960938,341.962036 
M330.655670,126.138741 
	C334.634216,129.485367 338.307434,133.388153 345.574066,133.990646 
	C342.251343,128.281647 339.517914,123.585144 336.403748,118.234520 
	C341.629669,118.234520 346.283752,118.234520 350.937805,118.234520 
	C351.146027,117.617790 351.354248,117.001068 351.562500,116.384338 
	C346.889984,113.671768 342.217499,110.959198 337.851898,108.424789 
	C342.082428,105.851501 346.412750,103.217529 350.743103,100.583549 
	C350.531494,99.989212 350.319916,99.394875 350.108337,98.800537 
	C345.084351,98.800537 340.060364,98.800537 334.643372,98.800537 
	C337.304199,93.542625 342.000183,89.695473 340.653320,82.349495 
	C335.898010,85.728096 331.699036,88.711418 327.849670,91.446358 
	C327.522217,86.060028 327.184570,80.506599 326.846954,74.953171 
	C326.025177,74.838753 325.203400,74.724342 324.381622,74.609924 
	C322.308960,79.670532 320.236298,84.731140 318.329224,89.387421 
	C315.679565,84.753891 312.773926,79.672653 309.868256,74.591423 
	C309.186310,74.857361 308.504364,75.123306 307.822418,75.389252 
	C308.171692,80.791313 308.520935,86.193382 308.868713,91.572601 
	C304.291656,88.858528 300.079071,86.360565 295.866455,83.862595 
	C295.270905,84.499283 294.675323,85.135963 294.079773,85.772652 
	C296.971863,90.348618 299.863953,94.924583 303.131866,100.095215 
	C297.785828,100.095215 292.900238,100.095215 288.014679,100.095215 
	C287.821136,100.731201 287.627625,101.367180 287.434113,102.003166 
	C292.151672,104.555710 296.869263,107.108253 301.232880,109.469284 
	C296.899353,112.209930 292.465546,115.013969 288.031769,117.818008 
	C288.295990,118.430176 288.560242,119.042336 288.824463,119.654495 
	C293.907227,119.654495 298.989990,119.654495 303.978577,119.654495 
	C301.851440,124.157303 299.663574,128.788742 297.475677,133.420181 
	C298.086182,133.931046 298.696686,134.441895 299.307220,134.952759 
	C303.386444,132.189667 307.465698,129.426575 312.675354,125.897812 
	C312.675354,132.123764 312.675354,137.484024 312.675354,142.844284 
	C313.459656,142.991333 314.243988,143.138397 315.028290,143.285461 
	C316.977264,138.434280 318.926208,133.583099 320.968140,128.500565 
	C324.188965,133.206299 324.391907,139.957367 330.924927,143.280502 
	C331.057892,140.678329 331.330902,138.878845 331.202881,137.108353 
	C330.931671,133.357132 330.451263,129.621002 330.026733,125.948914 
	C330.026733,125.948914 329.988525,126.014977 330.655670,126.138741 
M348.465240,247.633514 
	C351.361542,252.346298 354.257843,257.059082 357.178040,261.810730 
	C351.378571,262.077881 345.753845,262.336975 340.129089,262.596069 
	C339.930054,263.408478 339.731018,264.220917 339.531982,265.033325 
	C344.708221,267.692749 349.884430,270.352173 355.350128,273.160309 
	C352.288361,274.812469 349.614990,276.156464 347.042572,277.671875 
	C344.647095,279.083038 342.359039,280.676636 340.023712,282.189911 
	C340.247498,282.902588 340.471283,283.615295 340.695068,284.327972 
	C346.608582,283.985809 352.522125,283.643646 358.488525,283.298431 
	C356.528992,288.817993 350.822510,292.711884 350.873169,299.044800 
	C351.369019,299.515869 351.864868,299.986908 352.360718,300.457977 
	C357.127350,297.136505 361.893982,293.815063 367.008759,290.251007 
	C367.008759,296.489594 367.008759,302.568695 367.008759,308.647766 
	C367.773468,308.871216 368.538177,309.094696 369.302856,309.318146 
	C372.088837,303.737579 374.874817,298.157013 377.612335,292.673462 
	C380.450623,297.712646 383.416199,302.977783 386.381775,308.242920 
	C387.176056,307.974152 387.970337,307.705414 388.764618,307.436676 
	C388.275299,301.424042 387.786011,295.411438 387.297913,289.413330 
	C393.024719,291.117035 396.956940,297.241180 405.607208,296.943878 
	C401.466858,290.970062 398.110229,286.127045 394.410034,280.788330 
	C400.926880,280.788330 406.811584,280.788330 414.007874,280.788330 
	C409.182068,273.931854 401.664276,274.165771 396.941711,270.908844 
	C402.103088,267.880341 407.362640,264.794250 412.622192,261.708160 
	C412.361542,260.873810 412.100891,260.039490 411.840240,259.205139 
	C405.891296,259.614899 399.942322,260.024628 393.897156,260.440979 
	C395.967377,255.151276 402.344940,251.452850 400.594238,243.172882 
	C395.360535,246.626755 390.768921,249.656906 385.088684,253.405457 
	C385.088684,246.914291 385.088684,241.220093 385.088684,235.525894 
	C384.332123,235.339890 383.575562,235.153870 382.819031,234.967850 
	C380.134247,240.570358 377.449493,246.172852 374.765930,251.772903 
	C372.037537,246.174255 370.315857,239.977127 365.259033,235.976257 
	C364.696930,236.132065 364.134827,236.287888 363.572754,236.443695 
	C363.990997,242.249649 364.409241,248.055588 364.871399,254.471176 
	C362.475891,252.675568 360.587646,250.677826 358.269073,249.667496 
	C355.272888,248.361893 351.932953,247.845154 348.465240,247.633514 
M369.823883,204.300858 
	C370.354187,202.462769 370.884460,200.624680 371.586121,198.192642 
	C375.568542,203.544312 376.886627,209.952591 381.290100,214.192795 
	C381.891876,213.983337 382.493622,213.773895 383.095398,213.564453 
	C382.482147,207.593338 381.868896,201.622208 381.250977,195.605576 
	C387.143127,197.531174 390.922699,203.647583 397.443024,203.939636 
	C397.867889,203.521652 398.292786,203.103653 398.717651,202.685654 
	C395.382721,197.792816 392.047791,192.899994 388.308929,187.414490 
	C394.406586,187.414490 400.015167,187.414490 405.623749,187.414490 
	C405.816467,186.725174 406.009155,186.035858 406.201843,185.346558 
	C400.947754,182.690643 395.693665,180.034744 390.005554,177.159454 
	C392.997406,175.600067 395.689697,174.323151 398.252350,172.824478 
	C400.661194,171.415756 402.933105,169.772903 405.265259,168.233063 
	C405.033813,167.499527 404.802399,166.765991 404.570953,166.032471 
	C398.751648,166.477951 392.932343,166.923447 387.076782,167.371719 
	C389.947479,162.074661 394.645966,157.754303 394.993988,151.478088 
	C394.540771,151.016464 394.087524,150.554840 393.634277,150.093231 
	C388.953003,153.313904 384.271698,156.534592 379.509277,159.811081 
	C379.261169,153.689926 381.343689,147.699829 376.687317,141.764099 
	C374.258392,146.981293 371.829468,152.198471 369.290710,157.651535 
	C365.520752,152.780838 364.405212,146.384842 359.879944,142.405182 
	C359.223145,142.624329 358.566315,142.843460 357.909485,143.062607 
	C358.500702,148.916229 359.091919,154.769852 359.739563,161.181915 
	C354.586029,157.273117 350.191040,152.931732 344.015747,152.430191 
	C343.558533,152.928726 343.101349,153.427261 342.644165,153.925797 
	C346.000671,158.855621 349.357208,163.785446 352.957703,169.073639 
	C346.785736,169.073639 341.019653,169.073639 335.253540,169.073639 
	C335.075500,169.804031 334.897430,170.534424 334.719391,171.264832 
	C340.023193,173.914917 345.327026,176.565002 350.780304,179.289780 
	C346.307556,182.801392 339.235687,182.981369 335.573608,190.464767 
	C342.402649,190.038589 347.948578,189.692474 353.683960,189.334549 
	C351.722321,194.946976 346.663422,199.193039 345.933136,205.270081 
	C346.346191,205.655106 346.759277,206.040146 347.172333,206.425171 
	C351.971375,203.034470 356.770447,199.643768 362.194305,195.811600 
	C362.194305,202.770782 362.194305,208.881866 362.194305,214.992950 
	C362.816650,215.121368 363.438995,215.249786 364.061310,215.378204 
	C365.892487,211.920181 367.723663,208.462158 369.823883,204.300858 
z"/>
<path fill="#FFFEFD" opacity="1.000000" stroke="none" 
	d="
M103.935074,178.963806 
	C96.600815,181.350449 89.650032,183.631897 82.178299,186.084335 
	C70.357887,150.263412 58.587013,114.592598 46.576591,78.195862 
	C78.412476,67.691353 110.056000,57.250309 142.228455,46.634747 
	C154.110458,82.659981 165.869095,118.311119 177.815536,154.531693 
	C153.152725,162.694870 128.735641,170.776733 103.935074,178.963806 
M109.909126,156.468994 
	C113.548904,156.979843 116.565376,155.599060 117.078598,152.035706 
	C117.393707,149.847870 116.365730,146.629593 114.760750,145.186600 
	C111.927689,142.639450 108.493523,143.392563 106.074654,146.504959 
	C103.519867,149.792236 104.760155,153.455322 109.909126,156.468994 
M160.749466,138.905029 
	C161.479904,135.120895 160.290787,132.190979 156.501877,131.038528 
	C153.066422,129.993591 150.180252,131.173981 148.732529,134.622314 
	C147.392807,137.813416 148.286285,140.715012 151.242111,142.382874 
	C155.034561,144.522827 158.277023,143.535461 160.749466,138.905029 
M84.834160,152.416183 
	C81.933243,157.667389 83.625465,162.863617 88.628769,162.891678 
	C90.818306,162.903976 94.031273,161.264099 94.930656,159.455231 
	C95.823769,157.658936 95.131676,154.162003 93.816895,152.387131 
	C91.663956,149.480804 88.337936,149.771805 84.834160,152.416183 
M134.146484,137.292358 
	C131.803726,138.483276 128.800247,139.163879 127.348785,141.043182 
	C126.369087,142.311676 126.818176,145.933640 128.008850,147.297119 
	C129.354416,148.837967 132.497696,150.014557 134.393646,149.529587 
	C136.283966,149.046021 138.360489,146.543106 138.988586,144.504456 
	C139.976730,141.297226 138.132721,138.767197 134.146484,137.292358 
z"/>
<path fill="#FF2E5B" opacity="1.000000" stroke="none" 
	d="
M178.878891,283.261444 
	C177.037079,270.618683 175.242020,258.416016 173.446960,246.213333 
	C173.811172,246.031891 174.175385,245.850464 174.539597,245.669022 
	C182.685013,260.704773 190.830444,275.740509 199.336487,291.441925 
	C193.240433,293.476227 187.507339,295.389404 180.991425,297.563812 
	C180.267456,292.705688 179.596542,288.203583 178.878891,283.261444 
z"/>
<path fill="#FF2E5A" opacity="1.000000" stroke="none" 
	d="
M241.731842,452.330811 
	C233.429993,437.022064 225.128128,421.713318 216.587784,405.964783 
	C222.890045,403.871643 228.663635,401.954102 235.170044,399.793182 
	C237.523849,417.357849 239.817139,434.470825 241.897446,451.978577 
	C241.684464,452.373352 241.731842,452.330811 241.731842,452.330811 
z"/>
<path fill="#F79624" opacity="1.000000" stroke="none" 
	d="
M149.488861,311.397827 
	C155.012680,309.570892 160.181564,307.898254 165.803177,306.079102 
	C168.309494,323.634735 170.738876,340.651489 173.168259,357.668274 
	C172.843582,357.784637 172.518890,357.901031 172.194199,358.017395 
	C169.693451,353.407654 167.188065,348.800385 164.692917,344.187592 
	C159.550552,334.680817 154.361664,325.198334 149.345856,315.625183 
	C148.772491,314.530884 149.180771,312.922302 149.488861,311.397827 
z"/>
<path fill="#FF2D5A" opacity="1.000000" stroke="none" 
	d="
M196.053391,326.963196 
	C191.337265,318.186981 186.785248,309.742126 181.945480,300.763458 
	C188.045197,298.716736 193.780289,296.792328 200.333542,294.593414 
	C202.749924,311.687683 205.109619,328.380981 207.469330,345.074280 
	C207.020294,345.190674 206.571259,345.307037 206.122223,345.423431 
	C202.820648,339.380463 199.519073,333.337524 196.053391,326.963196 
z"/>
<path fill="#FF2D5A" opacity="1.000000" stroke="none" 
	d="
M214.833954,361.145264 
	C221.242859,373.038361 227.483673,384.605011 233.989243,396.662384 
	C227.885696,398.692322 222.129944,400.606598 215.643387,402.763947 
	C213.148239,385.672180 210.717133,369.019073 208.286026,352.365936 
	C208.628479,352.130066 208.970932,351.894165 209.313385,351.658264 
	C211.097534,354.711792 212.881699,357.765350 214.833954,361.145264 
z"/>
<path fill="#FF2E5A" opacity="1.000000" stroke="none" 
	d="
M172.863098,241.531555 
	C166.433548,230.404495 160.068420,218.984726 153.743896,207.542526 
	C151.589859,203.645493 149.538055,199.691956 147.255707,195.420151 
	C153.550232,193.349014 159.331711,191.446701 165.656891,189.365494 
	C168.143005,207.061371 170.543213,224.145721 172.863098,241.531555 
z"/>
<path fill="#F79624" opacity="1.000000" stroke="none" 
	d="
M160.706772,295.299072 
	C162.048843,297.822937 163.207016,300.020996 164.708084,302.869812 
	C158.517288,304.914337 152.650116,306.852020 146.405426,308.914368 
	C143.931015,291.966064 141.540863,275.594910 139.150726,259.223755 
	C139.628922,258.975739 140.107132,258.727692 140.585342,258.479645 
	C147.580994,270.437561 153.839996,282.830627 160.706772,295.299072 
z"/>
<path fill="#F79623" opacity="1.000000" stroke="none" 
	d="
M190.873657,392.098236 
	C193.715210,397.396912 196.389389,402.366608 199.467041,408.086151 
	C193.341003,410.104889 187.478058,412.036926 181.079880,414.145325 
	C178.592606,396.814148 176.168793,379.925140 173.744980,363.036133 
	C174.105408,362.876343 174.465851,362.716583 174.826294,362.556793 
	C180.119629,372.294281 185.412949,382.031769 190.873657,392.098236 
z"/>
<path fill="#F79523" opacity="1.000000" stroke="none" 
	d="
M136.621277,239.330139 
	C137.200394,243.662720 137.702499,247.561127 138.204590,251.459534 
	C137.819275,251.612183 137.433960,251.764832 137.048645,251.917480 
	C129.009445,237.066467 120.970245,222.215454 112.659393,206.862625 
	C118.919861,204.782394 124.680641,202.868210 131.042877,200.754166 
	C132.908997,213.692215 134.726624,226.294098 136.621277,239.330139 
z"/>
<path fill="#F79624" opacity="1.000000" stroke="none" 
	d="
M206.363953,452.585693 
	C206.711609,455.751678 206.983017,458.483521 207.254425,461.215332 
	C206.840805,461.351837 206.427200,461.488312 206.013596,461.624817 
	C198.119385,447.019104 190.225189,432.413422 182.057419,417.301575 
	C188.329865,415.249481 194.084656,413.366730 200.499969,411.267883 
	C202.487656,425.308594 204.387680,438.730042 206.363953,452.585693 
z"/>
<path fill="#FF2E5A" opacity="1.000000" stroke="none" 
	d="
M241.671570,452.402466 
	C241.658691,452.431580 242.003723,452.083710 242.003723,452.083710 
	C242.003723,452.083710 241.981110,452.231018 241.856476,452.280914 
	C241.731842,452.330811 241.684464,452.373352 241.671570,452.402466 
z"/>
<path fill="#F79523" opacity="1.000000" stroke="none" 
	d="
M348.603149,247.311127 
	C351.932953,247.845154 355.272888,248.361893 358.269073,249.667496 
	C360.587646,250.677826 362.475891,252.675568 364.871399,254.471176 
	C364.409241,248.055588 363.990997,242.249649 363.572754,236.443695 
	C364.134827,236.287888 364.696930,236.132065 365.259033,235.976257 
	C370.315857,239.977127 372.037537,246.174255 374.765930,251.772903 
	C377.449493,246.172852 380.134247,240.570358 382.819031,234.967850 
	C383.575562,235.153870 384.332123,235.339890 385.088684,235.525894 
	C385.088684,241.220093 385.088684,246.914291 385.088684,253.405457 
	C390.768921,249.656906 395.360535,246.626755 400.594238,243.172882 
	C402.344940,251.452850 395.967377,255.151276 393.897156,260.440979 
	C399.942322,260.024628 405.891296,259.614899 411.840240,259.205139 
	C412.100891,260.039490 412.361542,260.873810 412.622192,261.708160 
	C407.362640,264.794250 402.103088,267.880341 396.941711,270.908844 
	C401.664276,274.165771 409.182068,273.931854 414.007874,280.788330 
	C406.811584,280.788330 400.926880,280.788330 394.410034,280.788330 
	C398.110229,286.127045 401.466858,290.970062 405.607208,296.943878 
	C396.956940,297.241180 393.024719,291.117035 387.297913,289.413330 
	C387.786011,295.411438 388.275299,301.424042 388.764618,307.436676 
	C387.970337,307.705414 387.176056,307.974152 386.381775,308.242920 
	C383.416199,302.977783 380.450623,297.712646 377.612335,292.673462 
	C374.874817,298.157013 372.088837,303.737579 369.302856,309.318146 
	C368.538177,309.094696 367.773468,308.871216 367.008759,308.647766 
	C367.008759,302.568695 367.008759,296.489594 367.008759,290.251007 
	C361.893982,293.815063 357.127350,297.136505 352.360718,300.457977 
	C351.864868,299.986908 351.369019,299.515869 350.873169,299.044800 
	C350.822510,292.711884 356.528992,288.817993 358.488525,283.298431 
	C352.522125,283.643646 346.608582,283.985809 340.695068,284.327972 
	C340.471283,283.615295 340.247498,282.902588 340.023712,282.189911 
	C342.359039,280.676636 344.647095,279.083038 347.042572,277.671875 
	C349.614990,276.156464 352.288361,274.812469 355.350128,273.160309 
	C349.884430,270.352173 344.708221,267.692749 339.531982,265.033325 
	C339.731018,264.220917 339.930054,263.408478 340.129089,262.596069 
	C345.753845,262.336975 351.378571,262.077881 357.178040,261.810730 
	C354.257843,257.059082 351.361542,252.346298 348.603149,247.311127 
z"/>
<path fill="#6DB855" opacity="1.000000" stroke="none" 
	d="
M369.689392,204.652496 
	C367.723663,208.462158 365.892487,211.920181 364.061310,215.378204 
	C363.438995,215.249786 362.816650,215.121368 362.194305,214.992950 
	C362.194305,208.881866 362.194305,202.770782 362.194305,195.811600 
	C356.770447,199.643768 351.971375,203.034470 347.172333,206.425171 
	C346.759277,206.040146 346.346191,205.655106 345.933136,205.270081 
	C346.663422,199.193039 351.722321,194.946976 353.683960,189.334549 
	C347.948578,189.692474 342.402649,190.038589 335.573608,190.464767 
	C339.235687,182.981369 346.307556,182.801392 350.780304,179.289780 
	C345.327026,176.565002 340.023193,173.914917 334.719391,171.264832 
	C334.897430,170.534424 335.075500,169.804031 335.253540,169.073639 
	C341.019653,169.073639 346.785736,169.073639 352.957703,169.073639 
	C349.357208,163.785446 346.000671,158.855621 342.644165,153.925797 
	C343.101349,153.427261 343.558533,152.928726 344.015747,152.430191 
	C350.191040,152.931732 354.586029,157.273117 359.739563,161.181915 
	C359.091919,154.769852 358.500702,148.916229 357.909485,143.062607 
	C358.566315,142.843460 359.223145,142.624329 359.879944,142.405182 
	C364.405212,146.384842 365.520752,152.780838 369.290710,157.651535 
	C371.829468,152.198471 374.258392,146.981293 376.687317,141.764099 
	C381.343689,147.699829 379.261169,153.689926 379.509277,159.811081 
	C384.271698,156.534592 388.953003,153.313904 393.634277,150.093231 
	C394.087524,150.554840 394.540771,151.016464 394.993988,151.478088 
	C394.645966,157.754303 389.947479,162.074661 387.076782,167.371719 
	C392.932343,166.923447 398.751648,166.477951 404.570953,166.032471 
	C404.802399,166.765991 405.033813,167.499527 405.265259,168.233063 
	C402.933105,169.772903 400.661194,171.415756 398.252350,172.824478 
	C395.689697,174.323151 392.997406,175.600067 390.005554,177.159454 
	C395.693665,180.034744 400.947754,182.690643 406.201843,185.346558 
	C406.009155,186.035858 405.816467,186.725174 405.623749,187.414490 
	C400.015167,187.414490 394.406586,187.414490 388.308929,187.414490 
	C392.047791,192.899994 395.382721,197.792816 398.717651,202.685654 
	C398.292786,203.103653 397.867889,203.521652 397.443024,203.939636 
	C390.922699,203.647583 387.143127,197.531174 381.250977,195.605576 
	C381.868896,201.622208 382.482147,207.593338 383.095398,213.564453 
	C382.493622,213.773895 381.891876,213.983337 381.290100,214.192795 
	C376.886627,209.952591 375.568542,203.544312 371.586121,198.192642 
	C370.884460,200.624680 370.354187,202.462769 369.689392,204.652496 
z"/>
<path fill="#F79522" opacity="1.000000" stroke="none" 
	d="
M330.056671,125.878693 
	C330.451263,129.621002 330.931671,133.357132 331.202881,137.108353 
	C331.330902,138.878845 331.057892,140.678329 330.924927,143.280502 
	C324.391907,139.957367 324.188965,133.206299 320.968140,128.500565 
	C318.926208,133.583099 316.977264,138.434280 315.028290,143.285461 
	C314.243988,143.138397 313.459656,142.991333 312.675354,142.844284 
	C312.675354,137.484024 312.675354,132.123764 312.675354,125.897812 
	C307.465698,129.426575 303.386444,132.189667 299.307220,134.952759 
	C298.696686,134.441895 298.086182,133.931046 297.475677,133.420181 
	C299.663574,128.788742 301.851440,124.157303 303.978577,119.654495 
	C298.989990,119.654495 293.907227,119.654495 288.824463,119.654495 
	C288.560242,119.042336 288.295990,118.430176 288.031769,117.818008 
	C292.465546,115.013969 296.899353,112.209930 301.232880,109.469284 
	C296.869263,107.108253 292.151672,104.555710 287.434113,102.003166 
	C287.627625,101.367180 287.821136,100.731201 288.014679,100.095215 
	C292.900238,100.095215 297.785828,100.095215 303.131866,100.095215 
	C299.863953,94.924583 296.971863,90.348618 294.079773,85.772652 
	C294.675323,85.135963 295.270905,84.499283 295.866455,83.862595 
	C300.079071,86.360565 304.291656,88.858528 308.868713,91.572601 
	C308.520935,86.193382 308.171692,80.791313 307.822418,75.389252 
	C308.504364,75.123306 309.186310,74.857361 309.868256,74.591423 
	C312.773926,79.672653 315.679565,84.753891 318.329224,89.387421 
	C320.236298,84.731140 322.308960,79.670532 324.381622,74.609924 
	C325.203400,74.724342 326.025177,74.838753 326.846954,74.953171 
	C327.184570,80.506599 327.522217,86.060028 327.849670,91.446358 
	C331.699036,88.711418 335.898010,85.728096 340.653320,82.349495 
	C342.000183,89.695473 337.304199,93.542625 334.643372,98.800537 
	C340.060364,98.800537 345.084351,98.800537 350.108337,98.800537 
	C350.319916,99.394875 350.531494,99.989212 350.743103,100.583549 
	C346.412750,103.217529 342.082428,105.851501 337.851898,108.424789 
	C342.217499,110.959198 346.889984,113.671768 351.562500,116.384338 
	C351.354248,117.001068 351.146027,117.617790 350.937805,118.234520 
	C346.283752,118.234520 341.629669,118.234520 336.403748,118.234520 
	C339.517914,123.585144 342.251343,128.281647 345.574066,133.990646 
	C338.307434,133.388153 334.634216,129.485367 330.233826,125.887459 
	C329.682495,125.771172 329.552979,125.906174 329.423431,126.041168 
	C329.634521,125.987007 329.845581,125.932846 330.056671,125.878693 
z"/>
<path fill="#F79726" opacity="1.000000" stroke="none" 
	d="
M109.546707,156.358521 
	C104.760155,153.455322 103.519867,149.792236 106.074654,146.504959 
	C108.493523,143.392563 111.927689,142.639450 114.760750,145.186600 
	C116.365730,146.629593 117.393707,149.847870 117.078598,152.035706 
	C116.565376,155.599060 113.548904,156.979843 109.546707,156.358521 
z"/>
<path fill="#F79726" opacity="1.000000" stroke="none" 
	d="
M160.593628,139.256714 
	C158.277023,143.535461 155.034561,144.522827 151.242111,142.382874 
	C148.286285,140.715012 147.392807,137.813416 148.732529,134.622314 
	C150.180252,131.173981 153.066422,129.993591 156.501877,131.038528 
	C160.290787,132.190979 161.479904,135.120895 160.593628,139.256714 
z"/>
<path fill="#F79726" opacity="1.000000" stroke="none" 
	d="
M85.100723,152.150330 
	C88.337936,149.771805 91.663956,149.480804 93.816895,152.387131 
	C95.131676,154.162003 95.823769,157.658936 94.930656,159.455231 
	C94.031273,161.264099 90.818306,162.903976 88.628769,162.891678 
	C83.625465,162.863617 81.933243,157.667389 85.100723,152.150330 
z"/>
<path fill="#F79726" opacity="1.000000" stroke="none" 
	d="
M134.513245,137.417633 
	C138.132721,138.767197 139.976730,141.297226 138.988586,144.504456 
	C138.360489,146.543106 136.283966,149.046021 134.393646,149.529587 
	C132.497696,150.014557 129.354416,148.837967 128.008850,147.297119 
	C126.818176,145.933640 126.369087,142.311676 127.348785,141.043182 
	C128.800247,139.163879 131.803726,138.483276 134.513245,137.417633 
z"/>
<path fill="#FFFEFD" opacity="1.000000" stroke="none" 
	d="
M330.041687,125.913803 
	C329.845581,125.932846 329.634521,125.987007 329.423431,126.041168 
	C329.552979,125.906174 329.682495,125.771172 329.900269,125.825577 
	C329.988525,126.014977 330.026733,125.948914 330.041687,125.913803 
z"/>
</svg>